<svg xmlns="http://www.w3.org/2000/svg" version="1.1" xmlns:xlink="http://www.w3.org/1999/xlink" xmlns:svgjs="http://svgjs.dev/svgjs" width="1500" height="257" viewBox="0 0 1500 257"><g transform="matrix(1,0,0,1,-0.9090909090909918,-0.6619341609033)"><svg viewBox="0 0 396 68" data-background-color="#000000" preserveAspectRatio="xMidYMid meet" height="257" width="1500" xmlns="http://www.w3.org/2000/svg" xmlns:xlink="http://www.w3.org/1999/xlink"><g id="tight-bounds" transform="matrix(1,0,0,1,0.2400000000000091,0.17514211261254786)"><svg viewBox="0 0 395.52 67.64971577477489" height="67.64971577477489" width="395.52"><g><svg viewBox="0 0 510.8690826324298 87.37901556989246" height="67.64971577477489" width="395.52"><g transform="matrix(1,0,0,1,115.3490826324299,12.076260473118278)"><svg viewBox="0 0 395.5199999999999 63.2264946236559" height="63.2264946236559" width="395.5199999999999"><g id="textblocktransform"><svg viewBox="0 0 395.5199999999999 63.2264946236559" height="63.2264946236559" width="395.5199999999999" id="textblock"><g><svg viewBox="0 0 395.5199999999999 63.2264946236559" height="63.2264946236559" width="395.5199999999999"><g transform="matrix(1,0,0,1,0,0)"><svg width="395.5199999999999" viewBox="1.93 -38.01 306.48 49" height="63.2264946236559" data-palette-color="url(#424e4059-5dbf-4ba8-8bf6-a08600b1adca)"></svg></g></svg></g></svg></g></svg></g><g><svg viewBox="0 0 100.4228246876557 87.37901556989246" height="87.37901556989246" width="100.4228246876557"><g><svg xmlns="http://www.w3.org/2000/svg" xml:space="preserve" viewBox="5.000000000000011 10.846 89.99999999999999 78.31000000000002" x="0" y="0" height="87.37901556989246" width="100.4228246876557" class="icon-icon-0" data-fill-palette-color="accent" id="icon-0"></svg></g></svg></g></svg></g><defs></defs><mask id="ffffade1-11cb-4a2a-b1d9-067a917177b8"><g id="SvgjsG5628"><svg viewBox="0 0 395.52 67.64971577477489" height="67.64971577477489" width="395.52"><g><svg viewBox="0 0 510.8690826324298 87.37901556989246" height="67.64971577477489" width="395.52"><g transform="matrix(1,0,0,1,115.3490826324299,12.076260473118278)"><svg viewBox="0 0 395.5199999999999 63.2264946236559" height="63.2264946236559" width="395.5199999999999"><g id="SvgjsG5627"><svg viewBox="0 0 395.5199999999999 63.2264946236559" height="63.2264946236559" width="395.5199999999999" id="SvgjsSvg5626"><g><svg viewBox="0 0 395.5199999999999 63.2264946236559" height="63.2264946236559" width="395.5199999999999"><g transform="matrix(1,0,0,1,0,0)"><svg width="395.5199999999999" viewBox="1.93 -38.01 306.48 49" height="63.2264946236559" data-palette-color="url(#424e4059-5dbf-4ba8-8bf6-a08600b1adca)"><path d="M20.85-13.04L20.85-13.04 20.78-8.35Q20.78-3.98 21.58-2.39L21.58-2.39Q22.07-1.44 22.73-0.93L22.73-0.93 23.88 0 16.8 0 16.04-2.83Q13.28 0.49 8.18 0.49L8.18 0.49Q5.27 0.49 3.49-1.46L3.49-1.46Q1.93-3.22 1.93-5.62 1.93-8.01 3.06-9.79 4.2-11.57 6.05-12.74L6.05-12.74Q9.72-15.01 15.26-15.11L15.26-15.11 15.26-15.38Q15.26-21.31 13.43-22.34L13.43-22.34Q12.77-22.71 11.73-22.71 10.69-22.71 9.67-22.02 8.64-21.34 7.81-20.26L7.81-20.26Q6.15-18.09 5.44-15.14L5.44-15.14Q3.27-16.43 3.27-20.09L3.27-20.09Q3.27-21.58 3.66-23.44L3.66-23.44Q4.59-23.44 5.42-23.71L5.42-23.71 7.3-24.29Q10.06-25.15 12.7-25.15 15.33-25.15 16.91-24.37 18.48-23.58 19.36-22.05L19.36-22.05Q20.85-19.43 20.85-13.04ZM7.2-5.13Q7.2-3.61 7.9-2.78 8.59-1.95 9.64-1.95 10.69-1.95 11.67-2.5 12.65-3.05 13.43-4L13.43-4Q15.26-6.18 15.26-9.11L15.26-9.11 15.26-12.72Q11.84-12.4 9.62-10.45L9.62-10.45Q7.2-8.35 7.2-5.13L7.2-5.13ZM41.94 0L41.6-1.93Q38.94 0.49 34.84 0.49L34.84 0.49Q31.08 0.49 28.9-1.68L28.9-1.68Q26.66-3.93 26.66-8.02 26.66-12.11 27.85-15.17 29.05-18.24 31-20.31L31-20.31Q34.86-24.41 40.48-24.63L40.48-24.63Q40.28-32.15 39.98-33.26 39.67-34.38 39.37-35.02 39.06-35.67 38.67-36.21L38.67-36.21 37.84-37.35 46.75-37.35Q46.07-34.89 45.96-32.57 45.85-30.25 45.8-28.49 45.75-26.73 45.73-24.8L45.73-24.8Q45.65-21.58 45.65-18.4 45.65-15.21 45.66-13.57 45.68-11.94 45.73-10.47L45.73-10.47Q45.85-4.98 46.14-3.94 46.43-2.91 46.74-2.28 47.04-1.66 47.43-1.12L47.43-1.12 48.26 0 41.94 0ZM40.51-8.96Q40.62-12.72 40.62-16 40.62-19.29 40.55-22.27L40.55-22.27Q37.01-21.73 34.89-18.09L34.89-18.09Q32.76-14.48 32.76-8.98L32.76-8.98Q32.76-5.74 33.26-4.44 33.76-3.15 34.46-2.55 35.15-1.95 36.14-1.95 37.13-1.95 37.88-2.36 38.62-2.76 39.18-3.54L39.18-3.54Q40.4-5.2 40.51-8.96ZM60.04-31.23Q59.54-30.42 58.83-29.87 58.12-29.32 57.22-29.32 56.32-29.32 55.61-29.87 54.9-30.42 54.41-31.23L54.41-31.23Q53.41-32.89 53.41-34.74L53.41-34.74Q53.41-36.99 55.46-37.74L55.46-37.74Q56.2-38.01 57.25-38.01L57.25-38.01Q60.15-38.01 60.86-35.96L60.86-35.96Q61.08-35.38 61.08-34.66 61.08-33.94 60.81-32.98 60.54-32.03 60.04-31.23ZM60.62 0L53.41 0Q54.54-3.86 54.54-13.26L54.54-13.26Q54.54-19.87 53.36-22.36L53.36-22.36Q53.07-23 52.7-23.54L52.7-23.54 51.9-24.66 60.57-24.66Q59.49-20.63 59.49-12.24 59.49-3.86 60.62 0L60.62 0ZM74.02-34.42L74.02-34.42Q73.5-32.54 73.5-29.92 73.5-27.29 73.61-26.56 73.72-25.83 73.97-25.39L73.97-25.39Q74.43-24.66 75.77-24.66L75.77-24.66 82.32-24.66Q82.32-23.29 81.66-22.56L81.66-22.56Q80.46-21.24 78.73-21.24L78.73-21.24Q77.87-21.24 77.21-21.48L77.21-21.48Q76.02-21.97 75.36-21.97 74.7-21.97 74.28-21.72 73.87-21.46 73.63-20.97L73.63-20.97Q73.19-20.09 73.19-17.14 73.19-14.18 73.37-11.08 73.55-7.98 74.28-5.9 75.02-3.81 76.51-2.76 78-1.71 80.61-1.71L80.61-1.71Q80.61-0.95 79.58 0.1L79.58 0.1Q79.31 0.39 79.12 0.49L79.12 0.49Q74.8 0.49 72.65-0.54L72.65-0.54Q70.18-1.76 69.13-4.88L69.13-4.88Q68.08-8.06 68.08-14.28L68.08-14.28Q68.08-19.73 67.79-20.72 67.5-21.7 67.25-22.02L67.25-22.02Q66.96-22.39 65.84-22.92L65.84-22.92Q67.35-24.07 68.84-27.2L68.84-27.2 70.06-29.76Q71.35-32.69 72.27-33.56 73.19-34.42 74.02-34.42ZM98.35-7.35L98.35-8.08 98.38-13.5Q98.38-18.6 98.11-20.17 97.84-21.73 97.68-22.35 97.52-22.97 97.3-23.51L97.3-23.51 96.84-24.66 104.04-24.66 103.92-23.54Q103.77-22.36 103.73-20.12L103.73-20.12 103.63-16.41Q103.51-12.13 103.51-8.42 103.51-4.71 103.05-2.08 102.6 0.56 101.85 2.56 101.09 4.57 100.11 6.02 99.14 7.47 98.06 8.45L98.06 8.45Q96.21 10.21 93.91 10.99L93.91 10.99Q93.42 10.79 92.97 10.27 92.52 9.74 92.42 9.28L92.42 9.28Q94.57 8.18 95.86 5.91L95.86 5.91Q97.7 2.69 98.18-3.39L98.18-3.39Q95.35 0.49 91.23 0.49L91.23 0.49Q88.3 0.49 86.68-1.81L86.68-1.81Q85.15-4.03 85.15-7.91L85.15-7.91 85.15-11.21Q85.15-12.3 85.12-13.45L85.12-13.45 85.12-15.67Q85.07-17.8 84.96-18.98 84.85-20.17 84.72-20.96 84.58-21.75 84.39-22.38 84.19-23 83.95-23.54L83.95-23.54 83.41-24.66 90.86-24.66Q90.22-21.17 90.22-11.45L90.22-11.45Q90.22-7.5 90.64-6.18 91.05-4.86 91.68-4.26 92.3-3.66 93.28-3.66 94.25-3.66 95-3.97 95.74-4.27 96.35-4.79L96.35-4.79Q97.55-5.71 98.35-7.35L98.35-7.35ZM99.14-9.42L99.28-10.01 99.14-9.42ZM127.99-13.04L127.99-13.04 127.92-8.35Q127.92-3.98 128.72-2.39L128.72-2.39Q129.21-1.44 129.87-0.93L129.87-0.93 131.02 0 123.94 0 123.18-2.83Q120.42 0.49 115.32 0.49L115.32 0.49Q112.41 0.49 110.63-1.46L110.63-1.46Q109.07-3.22 109.07-5.62 109.07-8.01 110.2-9.79 111.34-11.57 113.2-12.74L113.2-12.74Q116.86-15.01 122.4-15.11L122.4-15.11 122.4-15.38Q122.4-21.31 120.57-22.34L120.57-22.34Q119.91-22.71 118.87-22.71 117.83-22.71 116.81-22.02 115.78-21.34 114.95-20.26L114.95-20.26Q113.29-18.09 112.59-15.14L112.59-15.14Q110.41-16.43 110.41-20.09L110.41-20.09Q110.41-21.58 110.8-23.44L110.8-23.44Q111.73-23.44 112.56-23.71L112.56-23.71 114.44-24.29Q117.2-25.15 119.84-25.15 122.47-25.15 124.05-24.37 125.62-23.58 126.5-22.05L126.5-22.05Q127.99-19.43 127.99-13.04ZM114.34-5.13Q114.34-3.61 115.04-2.78 115.73-1.95 116.78-1.95 117.83-1.95 118.81-2.5 119.79-3.05 120.57-4L120.57-4Q122.4-6.18 122.4-9.11L122.4-9.11 122.4-12.72Q118.98-12.4 116.76-10.45L116.76-10.45Q114.34-8.35 114.34-5.13L114.34-5.13ZM158.99 0L151.98 0Q153.11-3.86 153.11-13.26L153.11-13.26Q153.11-19.95 151.94-22.39L151.94-22.39Q151.64-23 151.28-23.54L151.28-23.54 150.47-24.66 158.94-24.66Q158.58-23.22 158.45-22.36L158.45-22.36 158.28-20.9Q161.12-25.15 165.5-25.15 169.88-25.15 171.17-20.39L171.17-20.39Q173.1-23.68 176.28-24.76L176.28-24.76Q177.4-25.15 178.8-25.15 180.21-25.15 181.34-24.55 182.48-23.95 183.26-22.85L183.26-22.85Q184.8-20.63 184.8-16.77L184.8-16.77 184.8-14.16Q184.8-6.69 185-4.8 185.21-2.91 185.31-2.29L185.31-2.29Q185.46-1.22 185.8 0L185.8 0 178.6 0Q179.67-3.69 179.67-13.26L179.67-13.26Q179.67-17.14 179.28-18.47 178.89-19.8 178.27-20.4 177.64-21 176.57-21L176.57-21Q173.42-21 171.56-17.29L171.56-17.29 171.56-14.16Q171.56-6.69 171.77-4.8 171.98-2.91 172.08-2.29L172.08-2.29Q172.22-1.22 172.57 0L172.57 0 165.36 0Q166.46-3.76 166.46-13.26L166.46-13.26Q166.46-17.24 166.07-18.52 165.68-19.8 165.07-20.4 164.46-21 163.4-21 162.34-21 161.48-20.58 160.63-20.17 159.94-19.48L159.94-19.48Q158.65-18.21 157.92-16.21L157.92-16.21Q157.87-15.5 157.87-14.75L157.87-14.75 157.87-13.26Q157.87-3.86 158.99 0L158.99 0ZM170.66-14.7L170.76-15.14 170.66-14.7ZM208.82-8.3L208.82-8.3Q209.7-7.71 209.7-6.26 209.7-4.81 209.31-3.71 208.92-2.61 207.94-1.66L207.94-1.66Q205.74 0.49 201.25 0.49L201.25 0.49Q196.02 0.49 193.29-3.37L193.29-3.37Q190.87-6.81 190.87-12.67L190.87-12.67Q190.87-18.58 194.15-21.95L194.15-21.95Q197.25-25.15 202.54-25.15L202.54-25.15Q206.23-25.15 208.31-23L208.31-23Q209.94-21.29 209.94-19.06 209.94-16.82 209.07-15.03 208.21-13.23 206.52-11.94L206.52-11.94Q203.06-9.25 196.83-9.11L196.83-9.11Q197.34-4.2 199.91-2.54L199.91-2.54Q200.83-1.95 202.37-1.95 203.91-1.95 205.64-3.56 207.38-5.18 208.82-8.3ZM196.68-12.18L196.68-11.43Q204.4-11.94 204.4-18.9L204.4-18.9Q204.4-21.51 202.84-22.41L202.84-22.41Q202.3-22.71 201.42-22.71 200.54-22.71 199.65-22.17 198.76-21.63 198.1-20.41L198.1-20.41Q196.68-17.75 196.68-12.18L196.68-12.18ZM229.49 0L229.15-1.93Q226.49 0.49 222.39 0.49L222.39 0.49Q218.63 0.49 216.46-1.68L216.46-1.68Q214.21-3.93 214.21-8.02 214.21-12.11 215.41-15.17 216.6-18.24 218.56-20.31L218.56-20.31Q222.41-24.41 228.03-24.63L228.03-24.63Q227.83-32.15 227.53-33.26 227.22-34.38 226.92-35.02 226.61-35.67 226.22-36.21L226.22-36.21 225.39-37.35 234.3-37.35Q233.62-34.89 233.51-32.57 233.4-30.25 233.35-28.49 233.3-26.73 233.28-24.8L233.28-24.8Q233.21-21.58 233.21-18.4 233.21-15.21 233.22-13.57 233.23-11.94 233.28-10.47L233.28-10.47Q233.4-4.98 233.69-3.94 233.99-2.91 234.29-2.28 234.6-1.66 234.99-1.12L234.99-1.12 235.82 0 229.49 0ZM228.07-8.96Q228.18-12.72 228.18-16 228.18-19.29 228.1-22.27L228.1-22.27Q224.56-21.73 222.44-18.09L222.44-18.09Q220.31-14.48 220.31-8.98L220.31-8.98Q220.31-5.74 220.81-4.44 221.32-3.15 222.01-2.55 222.71-1.95 223.7-1.95 224.68-1.95 225.43-2.36 226.17-2.76 226.74-3.54L226.74-3.54Q227.96-5.2 228.07-8.96ZM247.59-31.23Q247.09-30.42 246.39-29.87 245.68-29.32 244.77-29.32 243.87-29.32 243.16-29.87 242.46-30.42 241.97-31.23L241.97-31.23Q240.97-32.89 240.97-34.74L240.97-34.74Q240.97-36.99 243.02-37.74L243.02-37.74Q243.75-38.01 244.8-38.01L244.8-38.01Q247.7-38.01 248.41-35.96L248.41-35.96Q248.63-35.38 248.63-34.66 248.63-33.94 248.36-32.98 248.1-32.03 247.59-31.23ZM248.17 0L240.97 0Q242.09-3.86 242.09-13.26L242.09-13.26Q242.09-19.87 240.92-22.36L240.92-22.36Q240.62-23 240.26-23.54L240.26-23.54 239.45-24.66 248.12-24.66Q247.05-20.63 247.05-12.24 247.05-3.86 248.17 0L248.17 0ZM270.29-26.12L270.29-26.12Q270.9-24.66 270.9-22.91 270.9-21.17 270.77-20.02 270.65-18.87 270.41-17.8L270.41-17.8Q269.89-15.53 268.82-14.16L268.82-14.16Q267.75-20.8 265.33-22.22L265.33-22.22Q264.47-22.71 263.49-22.71 262.5-22.71 261.76-22.24 261.03-21.78 260.52-20.9L260.52-20.9Q259.47-19.14 259.47-16.35 259.47-13.55 260.03-11.54 260.59-9.52 261.51-7.92 262.42-6.32 263.58-5.16 264.74-4 265.91-3.22L265.91-3.22Q268.28-1.71 270.11-1.71L270.11-1.71Q270.02-1.07 269.48-0.46 268.94 0.15 268.31 0.49L268.31 0.49Q265.72 0.49 262.37-1.27L262.37-1.27Q256.15-4.57 253.98-10.89L253.98-10.89Q253.17-13.21 253.17-15.64 253.17-18.07 253.73-19.74 254.29-21.41 255.37-22.61L255.37-22.61Q257.57-25.15 261.47-25.15L261.47-25.15Q262.79-25.15 264.04-24.98L264.04-24.98Q266.38-24.66 267.32-24.66 268.26-24.66 268.99-24.91 269.72-25.17 270.29-26.12ZM293.84-13.04L293.84-13.04 293.77-8.35Q293.77-3.98 294.57-2.39L294.57-2.39Q295.06-1.44 295.72-0.93L295.72-0.93 296.87 0 289.79 0 289.03-2.83Q286.27 0.49 281.17 0.49L281.17 0.49Q278.27 0.49 276.48-1.46L276.48-1.46Q274.92-3.22 274.92-5.62 274.92-8.01 276.06-9.79 277.19-11.57 279.05-12.74L279.05-12.74Q282.71-15.01 288.25-15.11L288.25-15.11 288.25-15.38Q288.25-21.31 286.42-22.34L286.42-22.34Q285.76-22.71 284.72-22.71 283.69-22.71 282.66-22.02 281.64-21.34 280.8-20.26L280.8-20.26Q279.14-18.09 278.44-15.14L278.44-15.14Q276.26-16.43 276.26-20.09L276.26-20.09Q276.26-21.58 276.65-23.44L276.65-23.44Q277.58-23.44 278.41-23.71L278.41-23.71 280.29-24.29Q283.05-25.15 285.69-25.15 288.32-25.15 289.9-24.37 291.47-23.58 292.35-22.05L292.35-22.05Q293.84-19.43 293.84-13.04ZM280.19-5.13Q280.19-3.61 280.89-2.78 281.59-1.95 282.64-1.95 283.69-1.95 284.66-2.5 285.64-3.05 286.42-4L286.42-4Q288.25-6.18 288.25-9.11L288.25-9.11 288.25-12.72Q284.83-12.4 282.61-10.45L282.61-10.45Q280.19-8.35 280.19-5.13L280.19-5.13ZM307.29-17.58L307.27-11.18Q307.27-3.27 308.22 0L308.22 0 301.02 0Q301.7-2.37 301.87-5.59L301.87-5.59Q302.24-13.38 302.24-17.68 302.24-21.97 302.21-23.45 302.19-24.93 302.16-26.42L302.16-26.42Q302.02-31.71 301.66-33.09 301.31-34.47 301.01-35.1 300.7-35.72 300.31-36.23L300.31-36.23 299.5-37.35 308.41-37.35Q307.73-34.89 307.62-32.63 307.51-30.37 307.45-28.64 307.39-26.9 307.34-25.02L307.34-25.02Q307.29-21.9 307.29-17.58L307.29-17.58Z" opacity="1" transform="matrix(1,0,0,1,0,0)" fill="white" class="wordmark-text-0" id="SvgjsPath5625"></path></svg></g></svg></g></svg></g></svg></g><g><svg viewBox="0 0 100.4228246876557 87.37901556989246" height="87.37901556989246" width="100.4228246876557"><g><svg xmlns="http://www.w3.org/2000/svg" xml:space="preserve" viewBox="5.000000000000011 10.846 89.99999999999999 78.31000000000002" x="0" y="0" height="87.37901556989246" width="100.4228246876557" class="icon-icon-0" data-fill-palette-color="accent" id="SvgjsSvg5624"><path d="M50.413 73.269c-5.581-1.231-9.3-3.478-11.079-5.741-0.529-0.672-0.866-1.338-1.052-1.984-0.109-0.381-0.177-0.756-0.166-1.115 0.026-0.759 0.352-1.582 1.036-2.391 1.031-1.225 2.896-2.421 5.823-3.36-2.224-0.545-4.183-1.203-5.9-1.947-1.992 1.212-3.236 2.546-3.994 3.8-0.888 1.479-1.122 2.843-1.153 3.752-0.052 1.512 0.354 2.986 1.144 4.383 0.333 0.589 0.727 1.164 1.194 1.723 2.625 3.121 7.299 5.664 13.245 6.977 3.708 0.816 5.377 2.481 5.391 3.769 0.005 0.528-0.28 1.127-0.855 1.713-0.429 0.437-1.022 0.865-1.794 1.255q-0.077 0.036-0.158 0.072v-3.597c-0.569-0.383-1.523-0.833-3.034-1.166-0.396-0.089-0.771-0.195-1.156-0.293v5.032c-1.892-0.914-2.775-2.073-2.766-3.017 0.007-0.722 0.553-1.554 1.661-2.294a33 33 0 0 1-4.414-1.6c-0.993 1.262-1.427 2.623-1.439 3.854-0.026 2.616 1.835 5.839 6.958 7.571 0.529 0.181 1.081 0.346 1.681 0.491h0.866a19 19 0 0 0 1.643-0.478c1.192-0.398 2.21-0.881 3.067-1.417 0.636-0.398 1.197-0.83 1.665-1.277 1.619-1.552 2.279-3.33 2.266-4.891-0.027-2.863-2.322-6.419-8.68-7.824" fill="black"></path><path d="M52.094 70.417v-10.37a34 34 0 0 0-2.638-0.486 80 80 0 0 1-1.552-0.26v11.1c0.684 0.229 1.403 0.434 2.144 0.619l0.454-0.121c0.56-0.148 1.084-0.313 1.592-0.482M95 23.954v-4.19c-13.931 0-29.627-7.935-29.784-8.016l-1.767-0.902-0.997 1.718c-2.574 4.44-7.347 7.2-12.452 7.2-5.11 0-9.88-2.759-12.452-7.2l-0.997-1.718-1.769 0.902c-0.159 0.081-15.851 8.016-29.782 8.016v4.19c12.318 0 25.387-5.514 29.988-7.652a18.7 18.7 0 0 0 2.157 2.465c-3.334 1.987-9.767 5.261-16.002 5.261v4.19c8.373 0 16.609-4.802 19.608-6.752a18.6 18.6 0 0 0 7.151 2.365v26.907c0.942 0.216 1.88 0.395 2.793 0.531q0.72 0.107 1.398 0.229V23.831a18.6 18.6 0 0 0 7.153-2.365c2.996 1.95 11.234 6.752 19.607 6.752v-4.19c-6.237 0-12.67-3.276-15.999-5.264a19 19 0 0 0 2.156-2.462c4.602 2.137 17.671 7.652 29.99 7.652" fill="black"></path><path d="M64.295 30.441c-0.38-0.139-3.791-1.298-6.432 0.232-0.958 0.556-2.176 1.681-2.562 3.902l4.132 0.716c0.13-0.756 0.42-0.927 0.528-0.99 0.683-0.401 2.143-0.188 2.839 0.053 2.993 1.208 4.688 4.044 4.312 7.23-0.442 3.749-3.914 8.152-12.032 10.562 2.405 0.619 4.376 1.384 5.985 2.237 8.447-4.03 9.947-10.103 10.207-12.31 0.594-5.037-2.179-9.702-6.977-11.632" fill="black"></path><path d="M50.386 53.342c-12.064-1.805-16.931-7.258-17.459-11.756-0.376-3.184 1.314-6.024 4.228-7.2a6 6 0 0 1 1.831-0.306c0.426 0 0.82 0.062 1.087 0.22 0.111 0.065 0.401 0.236 0.532 0.99l4.128-0.717c-0.385-2.217-1.604-3.346-2.559-3.898-1.021-0.593-2.159-0.784-3.196-0.784-1.641 0-3.029 0.476-3.308 0.578-4.725 1.904-7.5 6.566-6.907 11.607 0.343 2.931 2.878 12.698 21.001 15.411 8.83 1.319 12.069 4.452 12.155 6.938 0.086 2.472-2.701 5.598-8.204 7.647 1.844 0.7 3.3 1.6 4.413 2.61 5.087-2.624 8.115-6.395 7.979-10.401-0.085-2.594-1.798-8.857-15.721-10.939" fill="black"></path></svg></g></svg></g></svg></g><defs><mask></mask></defs></svg><rect width="395.52" height="67.64971577477489" fill="black" stroke="none" visibility="hidden"></rect></g></mask><linearGradient x1="0" x2="1" y1="0.548" y2="0.55" id="424e4059-5dbf-4ba8-8bf6-a08600b1adca"><stop stop-color="#ff6cab" offset="0"></stop><stop stop-color="#7366ff" offset="1"></stop></linearGradient><rect width="395.52" height="67.64971577477489" fill="url(#424e4059-5dbf-4ba8-8bf6-a08600b1adca)" mask="url(#ffffade1-11cb-4a2a-b1d9-067a917177b8)" data-fill-palette-color="primary"></rect><mask id="726a9255-9372-44a5-8dba-96f126c0b76a"><g id="SvgjsG5647"><svg viewBox="0 0 395.52 67.64971577477489" height="67.64971577477489" width="395.52"><g><svg viewBox="0 0 510.8690826324298 87.37901556989246" height="67.64971577477489" width="395.52"><g transform="matrix(1,0,0,1,115.3490826324299,12.076260473118278)"><svg viewBox="0 0 395.5199999999999 63.2264946236559" height="63.2264946236559" width="395.5199999999999"><g id="SvgjsG5646"><svg viewBox="0 0 395.5199999999999 63.2264946236559" height="63.2264946236559" width="395.5199999999999" id="SvgjsSvg5645"><g><svg viewBox="0 0 395.5199999999999 63.2264946236559" height="63.2264946236559" width="395.5199999999999"><g transform="matrix(1,0,0,1,0,0)"><svg width="395.5199999999999" viewBox="1.93 -38.01 306.48 49" height="63.2264946236559" data-palette-color="url(#424e4059-5dbf-4ba8-8bf6-a08600b1adca)"></svg></g></svg></g></svg></g></svg></g><g><svg viewBox="0 0 100.4228246876557 87.37901556989246" height="87.37901556989246" width="100.4228246876557"><g><svg xmlns="http://www.w3.org/2000/svg" xml:space="preserve" viewBox="5.000000000000011 10.846 89.99999999999999 78.31000000000002" x="0" y="0" height="87.37901556989246" width="100.4228246876557" class="icon-icon-0" data-fill-palette-color="accent" id="SvgjsSvg5644"><path d="M50.413 73.269c-5.581-1.231-9.3-3.478-11.079-5.741-0.529-0.672-0.866-1.338-1.052-1.984-0.109-0.381-0.177-0.756-0.166-1.115 0.026-0.759 0.352-1.582 1.036-2.391 1.031-1.225 2.896-2.421 5.823-3.36-2.224-0.545-4.183-1.203-5.9-1.947-1.992 1.212-3.236 2.546-3.994 3.8-0.888 1.479-1.122 2.843-1.153 3.752-0.052 1.512 0.354 2.986 1.144 4.383 0.333 0.589 0.727 1.164 1.194 1.723 2.625 3.121 7.299 5.664 13.245 6.977 3.708 0.816 5.377 2.481 5.391 3.769 0.005 0.528-0.28 1.127-0.855 1.713-0.429 0.437-1.022 0.865-1.794 1.255q-0.077 0.036-0.158 0.072v-3.597c-0.569-0.383-1.523-0.833-3.034-1.166-0.396-0.089-0.771-0.195-1.156-0.293v5.032c-1.892-0.914-2.775-2.073-2.766-3.017 0.007-0.722 0.553-1.554 1.661-2.294a33 33 0 0 1-4.414-1.6c-0.993 1.262-1.427 2.623-1.439 3.854-0.026 2.616 1.835 5.839 6.958 7.571 0.529 0.181 1.081 0.346 1.681 0.491h0.866a19 19 0 0 0 1.643-0.478c1.192-0.398 2.21-0.881 3.067-1.417 0.636-0.398 1.197-0.83 1.665-1.277 1.619-1.552 2.279-3.33 2.266-4.891-0.027-2.863-2.322-6.419-8.68-7.824" fill="white"></path><path d="M52.094 70.417v-10.37a34 34 0 0 0-2.638-0.486 80 80 0 0 1-1.552-0.26v11.1c0.684 0.229 1.403 0.434 2.144 0.619l0.454-0.121c0.56-0.148 1.084-0.313 1.592-0.482M95 23.954v-4.19c-13.931 0-29.627-7.935-29.784-8.016l-1.767-0.902-0.997 1.718c-2.574 4.44-7.347 7.2-12.452 7.2-5.11 0-9.88-2.759-12.452-7.2l-0.997-1.718-1.769 0.902c-0.159 0.081-15.851 8.016-29.782 8.016v4.19c12.318 0 25.387-5.514 29.988-7.652a18.7 18.7 0 0 0 2.157 2.465c-3.334 1.987-9.767 5.261-16.002 5.261v4.19c8.373 0 16.609-4.802 19.608-6.752a18.6 18.6 0 0 0 7.151 2.365v26.907c0.942 0.216 1.88 0.395 2.793 0.531q0.72 0.107 1.398 0.229V23.831a18.6 18.6 0 0 0 7.153-2.365c2.996 1.95 11.234 6.752 19.607 6.752v-4.19c-6.237 0-12.67-3.276-15.999-5.264a19 19 0 0 0 2.156-2.462c4.602 2.137 17.671 7.652 29.99 7.652" fill="white"></path><path d="M64.295 30.441c-0.38-0.139-3.791-1.298-6.432 0.232-0.958 0.556-2.176 1.681-2.562 3.902l4.132 0.716c0.13-0.756 0.42-0.927 0.528-0.99 0.683-0.401 2.143-0.188 2.839 0.053 2.993 1.208 4.688 4.044 4.312 7.23-0.442 3.749-3.914 8.152-12.032 10.562 2.405 0.619 4.376 1.384 5.985 2.237 8.447-4.03 9.947-10.103 10.207-12.31 0.594-5.037-2.179-9.702-6.977-11.632" fill="white"></path><path d="M50.386 53.342c-12.064-1.805-16.931-7.258-17.459-11.756-0.376-3.184 1.314-6.024 4.228-7.2a6 6 0 0 1 1.831-0.306c0.426 0 0.82 0.062 1.087 0.22 0.111 0.065 0.401 0.236 0.532 0.99l4.128-0.717c-0.385-2.217-1.604-3.346-2.559-3.898-1.021-0.593-2.159-0.784-3.196-0.784-1.641 0-3.029 0.476-3.308 0.578-4.725 1.904-7.5 6.566-6.907 11.607 0.343 2.931 2.878 12.698 21.001 15.411 8.83 1.319 12.069 4.452 12.155 6.938 0.086 2.472-2.701 5.598-8.204 7.647 1.844 0.7 3.3 1.6 4.413 2.61 5.087-2.624 8.115-6.395 7.979-10.401-0.085-2.594-1.798-8.857-15.721-10.939" fill="white"></path></svg></g></svg></g></svg></g><defs><mask></mask></defs><mask><g id="SvgjsG5643"><svg viewBox="0 0 395.52 67.64971577477489" height="67.64971577477489" width="395.52"><g><svg viewBox="0 0 510.8690826324298 87.37901556989246" height="67.64971577477489" width="395.52"><g transform="matrix(1,0,0,1,115.3490826324299,12.076260473118278)"><svg viewBox="0 0 395.5199999999999 63.2264946236559" height="63.2264946236559" width="395.5199999999999"><g id="SvgjsG5642"><svg viewBox="0 0 395.5199999999999 63.2264946236559" height="63.2264946236559" width="395.5199999999999" id="SvgjsSvg5641"><g><svg viewBox="0 0 395.5199999999999 63.2264946236559" height="63.2264946236559" width="395.5199999999999"><g transform="matrix(1,0,0,1,0,0)"><svg width="395.5199999999999" viewBox="1.93 -38.01 306.48 49" height="63.2264946236559" data-palette-color="url(#424e4059-5dbf-4ba8-8bf6-a08600b1adca)"><path d="M20.85-13.04L20.85-13.04 20.78-8.35Q20.78-3.98 21.58-2.39L21.58-2.39Q22.07-1.44 22.73-0.93L22.73-0.93 23.88 0 16.8 0 16.04-2.83Q13.28 0.49 8.18 0.49L8.18 0.49Q5.27 0.49 3.49-1.46L3.49-1.46Q1.93-3.22 1.93-5.62 1.93-8.01 3.06-9.79 4.2-11.57 6.05-12.74L6.05-12.74Q9.72-15.01 15.26-15.11L15.26-15.11 15.26-15.38Q15.26-21.31 13.43-22.34L13.43-22.34Q12.77-22.71 11.73-22.71 10.69-22.71 9.67-22.02 8.64-21.34 7.81-20.26L7.81-20.26Q6.15-18.09 5.44-15.14L5.44-15.14Q3.27-16.43 3.27-20.09L3.27-20.09Q3.27-21.58 3.66-23.44L3.66-23.44Q4.59-23.44 5.42-23.71L5.42-23.71 7.3-24.29Q10.06-25.15 12.7-25.15 15.33-25.15 16.91-24.37 18.48-23.58 19.36-22.05L19.36-22.05Q20.85-19.43 20.85-13.04ZM7.2-5.13Q7.2-3.61 7.9-2.78 8.59-1.95 9.64-1.95 10.69-1.95 11.67-2.5 12.65-3.05 13.43-4L13.43-4Q15.26-6.18 15.26-9.11L15.26-9.11 15.26-12.72Q11.84-12.4 9.62-10.45L9.62-10.45Q7.2-8.35 7.2-5.13L7.2-5.13ZM41.94 0L41.6-1.93Q38.94 0.49 34.84 0.49L34.84 0.49Q31.08 0.49 28.9-1.68L28.9-1.68Q26.66-3.93 26.66-8.02 26.66-12.11 27.85-15.17 29.05-18.24 31-20.31L31-20.31Q34.86-24.41 40.48-24.63L40.48-24.63Q40.28-32.15 39.98-33.26 39.67-34.38 39.37-35.02 39.06-35.67 38.67-36.21L38.67-36.21 37.84-37.35 46.75-37.35Q46.07-34.89 45.96-32.57 45.85-30.25 45.8-28.49 45.75-26.73 45.73-24.8L45.73-24.8Q45.65-21.58 45.65-18.4 45.65-15.21 45.66-13.57 45.68-11.94 45.73-10.47L45.73-10.47Q45.85-4.98 46.14-3.94 46.43-2.91 46.74-2.28 47.04-1.66 47.43-1.12L47.43-1.12 48.26 0 41.94 0ZM40.51-8.96Q40.62-12.72 40.62-16 40.62-19.29 40.55-22.27L40.55-22.27Q37.01-21.73 34.89-18.09L34.89-18.09Q32.76-14.48 32.76-8.98L32.76-8.98Q32.76-5.74 33.26-4.44 33.76-3.15 34.46-2.55 35.15-1.95 36.14-1.95 37.13-1.95 37.88-2.36 38.62-2.76 39.18-3.54L39.18-3.54Q40.4-5.2 40.51-8.96ZM60.04-31.23Q59.54-30.42 58.83-29.87 58.12-29.32 57.22-29.32 56.32-29.32 55.61-29.87 54.9-30.42 54.41-31.23L54.41-31.23Q53.41-32.89 53.41-34.74L53.41-34.74Q53.41-36.99 55.46-37.74L55.46-37.74Q56.2-38.01 57.25-38.01L57.25-38.01Q60.15-38.01 60.86-35.96L60.86-35.96Q61.08-35.38 61.08-34.66 61.08-33.94 60.81-32.98 60.54-32.03 60.04-31.23ZM60.62 0L53.41 0Q54.54-3.86 54.54-13.26L54.54-13.26Q54.54-19.87 53.36-22.36L53.36-22.36Q53.07-23 52.7-23.54L52.7-23.54 51.9-24.66 60.57-24.66Q59.49-20.63 59.49-12.24 59.49-3.86 60.62 0L60.62 0ZM74.02-34.42L74.02-34.42Q73.5-32.54 73.5-29.92 73.5-27.29 73.61-26.56 73.72-25.83 73.97-25.39L73.97-25.39Q74.43-24.66 75.77-24.66L75.77-24.66 82.32-24.66Q82.32-23.29 81.66-22.56L81.66-22.56Q80.46-21.24 78.73-21.24L78.73-21.24Q77.87-21.24 77.21-21.48L77.21-21.48Q76.02-21.97 75.36-21.97 74.7-21.97 74.28-21.72 73.87-21.46 73.63-20.97L73.63-20.97Q73.19-20.09 73.19-17.14 73.19-14.18 73.37-11.08 73.55-7.98 74.28-5.9 75.02-3.81 76.51-2.76 78-1.71 80.61-1.71L80.61-1.71Q80.61-0.95 79.58 0.1L79.58 0.1Q79.31 0.39 79.12 0.49L79.12 0.49Q74.8 0.49 72.65-0.54L72.65-0.54Q70.18-1.76 69.13-4.88L69.13-4.88Q68.08-8.06 68.08-14.28L68.08-14.28Q68.08-19.73 67.79-20.72 67.5-21.7 67.25-22.02L67.25-22.02Q66.96-22.39 65.84-22.92L65.84-22.92Q67.35-24.07 68.84-27.2L68.84-27.2 70.06-29.76Q71.35-32.69 72.27-33.56 73.19-34.42 74.02-34.42ZM98.35-7.35L98.35-8.08 98.38-13.5Q98.38-18.6 98.11-20.17 97.84-21.73 97.68-22.35 97.52-22.97 97.3-23.51L97.3-23.51 96.84-24.66 104.04-24.66 103.92-23.54Q103.77-22.36 103.73-20.12L103.73-20.12 103.63-16.41Q103.51-12.13 103.51-8.42 103.51-4.71 103.05-2.08 102.6 0.56 101.85 2.56 101.09 4.57 100.11 6.02 99.14 7.47 98.06 8.45L98.06 8.45Q96.21 10.21 93.91 10.99L93.91 10.99Q93.42 10.79 92.97 10.27 92.52 9.74 92.42 9.28L92.42 9.28Q94.57 8.18 95.86 5.91L95.86 5.91Q97.7 2.69 98.18-3.39L98.18-3.39Q95.35 0.49 91.23 0.49L91.23 0.49Q88.3 0.49 86.68-1.81L86.68-1.81Q85.15-4.03 85.15-7.91L85.15-7.91 85.15-11.21Q85.15-12.3 85.12-13.45L85.12-13.45 85.12-15.67Q85.07-17.8 84.96-18.98 84.85-20.17 84.72-20.96 84.58-21.75 84.39-22.38 84.19-23 83.95-23.54L83.95-23.54 83.41-24.66 90.86-24.66Q90.22-21.17 90.22-11.45L90.22-11.45Q90.22-7.5 90.64-6.18 91.05-4.86 91.68-4.26 92.3-3.66 93.28-3.66 94.25-3.66 95-3.97 95.74-4.27 96.35-4.79L96.35-4.79Q97.55-5.71 98.35-7.35L98.35-7.35ZM99.14-9.42L99.28-10.01 99.14-9.42ZM127.99-13.04L127.99-13.04 127.92-8.35Q127.92-3.98 128.72-2.39L128.72-2.39Q129.21-1.44 129.87-0.93L129.87-0.93 131.02 0 123.94 0 123.18-2.83Q120.42 0.49 115.32 0.49L115.32 0.49Q112.41 0.49 110.63-1.46L110.63-1.46Q109.07-3.22 109.07-5.62 109.07-8.01 110.2-9.79 111.34-11.57 113.2-12.74L113.2-12.74Q116.86-15.01 122.4-15.11L122.4-15.11 122.4-15.38Q122.4-21.31 120.57-22.34L120.57-22.34Q119.91-22.71 118.87-22.71 117.83-22.71 116.81-22.02 115.78-21.34 114.95-20.26L114.95-20.26Q113.29-18.09 112.59-15.14L112.59-15.14Q110.41-16.43 110.41-20.09L110.41-20.09Q110.41-21.58 110.8-23.44L110.8-23.44Q111.73-23.44 112.56-23.71L112.56-23.71 114.44-24.29Q117.2-25.15 119.84-25.15 122.47-25.15 124.05-24.37 125.62-23.58 126.5-22.05L126.5-22.05Q127.99-19.43 127.99-13.04ZM114.34-5.13Q114.34-3.61 115.04-2.78 115.73-1.95 116.78-1.95 117.83-1.95 118.81-2.5 119.79-3.05 120.57-4L120.57-4Q122.4-6.18 122.4-9.11L122.4-9.11 122.4-12.72Q118.98-12.4 116.76-10.45L116.76-10.45Q114.34-8.35 114.34-5.13L114.34-5.13ZM158.99 0L151.98 0Q153.11-3.86 153.11-13.26L153.11-13.26Q153.11-19.95 151.94-22.39L151.94-22.39Q151.64-23 151.28-23.54L151.28-23.54 150.47-24.66 158.94-24.66Q158.58-23.22 158.45-22.36L158.45-22.36 158.28-20.9Q161.12-25.15 165.5-25.15 169.88-25.15 171.17-20.39L171.17-20.39Q173.1-23.68 176.28-24.76L176.28-24.76Q177.4-25.15 178.8-25.15 180.21-25.15 181.34-24.55 182.48-23.95 183.26-22.85L183.26-22.85Q184.8-20.63 184.8-16.77L184.8-16.77 184.8-14.16Q184.8-6.69 185-4.8 185.21-2.91 185.31-2.29L185.31-2.29Q185.46-1.22 185.8 0L185.8 0 178.6 0Q179.67-3.69 179.67-13.26L179.67-13.26Q179.67-17.14 179.28-18.47 178.89-19.8 178.27-20.4 177.64-21 176.57-21L176.57-21Q173.42-21 171.56-17.29L171.56-17.29 171.56-14.16Q171.56-6.69 171.77-4.8 171.98-2.91 172.08-2.29L172.08-2.29Q172.22-1.22 172.57 0L172.57 0 165.36 0Q166.46-3.76 166.46-13.26L166.46-13.26Q166.46-17.24 166.07-18.52 165.68-19.8 165.07-20.4 164.46-21 163.4-21 162.34-21 161.48-20.58 160.63-20.17 159.94-19.48L159.94-19.48Q158.65-18.21 157.92-16.21L157.92-16.21Q157.87-15.5 157.87-14.75L157.87-14.75 157.87-13.26Q157.87-3.86 158.99 0L158.99 0ZM170.66-14.7L170.76-15.14 170.66-14.7ZM208.82-8.3L208.82-8.3Q209.7-7.71 209.7-6.26 209.7-4.81 209.31-3.71 208.92-2.61 207.94-1.66L207.94-1.66Q205.74 0.49 201.25 0.49L201.25 0.49Q196.02 0.49 193.29-3.37L193.29-3.37Q190.87-6.81 190.87-12.67L190.87-12.67Q190.87-18.58 194.15-21.95L194.15-21.95Q197.25-25.15 202.54-25.15L202.54-25.15Q206.23-25.15 208.31-23L208.31-23Q209.94-21.29 209.94-19.06 209.94-16.82 209.07-15.03 208.21-13.23 206.52-11.94L206.52-11.94Q203.06-9.25 196.83-9.11L196.83-9.11Q197.34-4.2 199.91-2.54L199.91-2.54Q200.83-1.95 202.37-1.95 203.91-1.95 205.64-3.56 207.38-5.18 208.82-8.3ZM196.68-12.18L196.68-11.43Q204.4-11.94 204.4-18.9L204.4-18.9Q204.4-21.51 202.84-22.41L202.84-22.41Q202.3-22.71 201.42-22.71 200.54-22.71 199.65-22.17 198.76-21.63 198.1-20.41L198.1-20.41Q196.68-17.75 196.68-12.18L196.68-12.18ZM229.49 0L229.15-1.93Q226.49 0.49 222.39 0.49L222.39 0.49Q218.63 0.49 216.46-1.68L216.46-1.68Q214.21-3.93 214.21-8.02 214.21-12.11 215.41-15.17 216.6-18.24 218.56-20.31L218.56-20.31Q222.41-24.41 228.03-24.63L228.03-24.63Q227.83-32.15 227.53-33.26 227.22-34.38 226.92-35.02 226.61-35.67 226.22-36.21L226.22-36.21 225.39-37.35 234.3-37.35Q233.62-34.89 233.51-32.57 233.4-30.25 233.35-28.49 233.3-26.73 233.28-24.8L233.28-24.8Q233.21-21.58 233.21-18.4 233.21-15.21 233.22-13.57 233.23-11.94 233.28-10.47L233.28-10.47Q233.4-4.98 233.69-3.94 233.99-2.91 234.29-2.28 234.6-1.66 234.99-1.12L234.99-1.12 235.82 0 229.49 0ZM228.07-8.96Q228.18-12.72 228.18-16 228.18-19.29 228.1-22.27L228.1-22.27Q224.56-21.73 222.44-18.09L222.44-18.09Q220.31-14.48 220.31-8.98L220.31-8.98Q220.31-5.74 220.81-4.44 221.32-3.15 222.01-2.55 222.71-1.95 223.7-1.95 224.68-1.95 225.43-2.36 226.17-2.76 226.74-3.54L226.74-3.54Q227.96-5.2 228.07-8.96ZM247.59-31.23Q247.09-30.42 246.39-29.87 245.68-29.32 244.77-29.32 243.87-29.32 243.16-29.87 242.46-30.42 241.97-31.23L241.97-31.23Q240.97-32.89 240.97-34.74L240.97-34.74Q240.97-36.99 243.02-37.74L243.02-37.74Q243.75-38.01 244.8-38.01L244.8-38.01Q247.7-38.01 248.41-35.96L248.41-35.96Q248.63-35.38 248.63-34.66 248.63-33.94 248.36-32.98 248.1-32.03 247.59-31.23ZM248.17 0L240.97 0Q242.09-3.86 242.09-13.26L242.09-13.26Q242.09-19.87 240.92-22.36L240.92-22.36Q240.62-23 240.26-23.54L240.26-23.54 239.45-24.66 248.12-24.66Q247.05-20.63 247.05-12.24 247.05-3.86 248.17 0L248.17 0ZM270.29-26.12L270.29-26.12Q270.9-24.66 270.9-22.91 270.9-21.17 270.77-20.02 270.65-18.87 270.41-17.8L270.41-17.8Q269.89-15.53 268.82-14.16L268.82-14.16Q267.75-20.8 265.33-22.22L265.33-22.22Q264.47-22.71 263.49-22.71 262.5-22.71 261.76-22.24 261.03-21.78 260.52-20.9L260.52-20.9Q259.47-19.14 259.47-16.35 259.47-13.55 260.03-11.54 260.59-9.52 261.51-7.92 262.42-6.32 263.58-5.16 264.74-4 265.91-3.22L265.91-3.22Q268.28-1.71 270.11-1.71L270.11-1.71Q270.02-1.07 269.48-0.46 268.94 0.15 268.31 0.49L268.31 0.49Q265.72 0.49 262.37-1.27L262.37-1.27Q256.15-4.57 253.98-10.89L253.98-10.89Q253.17-13.21 253.17-15.64 253.17-18.07 253.73-19.74 254.29-21.41 255.37-22.61L255.37-22.61Q257.57-25.15 261.47-25.15L261.47-25.15Q262.79-25.15 264.04-24.98L264.04-24.98Q266.38-24.66 267.32-24.66 268.26-24.66 268.99-24.91 269.72-25.17 270.29-26.12ZM293.84-13.04L293.84-13.04 293.77-8.35Q293.77-3.98 294.57-2.39L294.57-2.39Q295.06-1.44 295.72-0.93L295.72-0.93 296.87 0 289.79 0 289.03-2.83Q286.27 0.49 281.17 0.49L281.17 0.49Q278.27 0.49 276.48-1.46L276.48-1.46Q274.92-3.22 274.92-5.62 274.92-8.01 276.06-9.79 277.19-11.57 279.05-12.74L279.05-12.74Q282.71-15.01 288.25-15.11L288.25-15.11 288.25-15.38Q288.25-21.31 286.42-22.34L286.42-22.34Q285.76-22.71 284.72-22.71 283.69-22.71 282.66-22.02 281.64-21.34 280.8-20.26L280.8-20.26Q279.14-18.09 278.44-15.14L278.44-15.14Q276.26-16.43 276.26-20.09L276.26-20.09Q276.26-21.58 276.65-23.44L276.65-23.44Q277.58-23.44 278.41-23.71L278.41-23.71 280.29-24.29Q283.05-25.15 285.69-25.15 288.32-25.15 289.9-24.37 291.47-23.58 292.35-22.05L292.35-22.05Q293.84-19.43 293.84-13.04ZM280.19-5.13Q280.19-3.61 280.89-2.78 281.59-1.95 282.64-1.95 283.69-1.95 284.66-2.5 285.64-3.05 286.42-4L286.42-4Q288.25-6.18 288.25-9.11L288.25-9.11 288.25-12.72Q284.83-12.4 282.61-10.45L282.61-10.45Q280.19-8.35 280.19-5.13L280.19-5.13ZM307.29-17.58L307.27-11.18Q307.27-3.27 308.22 0L308.22 0 301.02 0Q301.7-2.37 301.87-5.59L301.87-5.59Q302.24-13.38 302.24-17.68 302.24-21.97 302.21-23.45 302.19-24.93 302.16-26.42L302.16-26.42Q302.02-31.71 301.66-33.09 301.31-34.47 301.01-35.1 300.7-35.72 300.31-36.23L300.31-36.23 299.5-37.35 308.41-37.35Q307.73-34.89 307.62-32.63 307.51-30.37 307.45-28.64 307.39-26.9 307.34-25.02L307.34-25.02Q307.29-21.9 307.29-17.58L307.29-17.58Z" opacity="1" transform="matrix(1,0,0,1,0,0)" fill="black" class="wordmark-text-0" id="SvgjsPath5640"></path></svg></g></svg></g></svg></g></svg></g><g><svg viewBox="0 0 100.4228246876557 87.37901556989246" height="87.37901556989246" width="100.4228246876557"><g><svg xmlns="http://www.w3.org/2000/svg" xml:space="preserve" viewBox="5.000000000000011 10.846 89.99999999999999 78.31000000000002" x="0" y="0" height="87.37901556989246" width="100.4228246876557" class="icon-icon-0" data-fill-palette-color="accent" id="SvgjsSvg5639"><path d="M50.413 73.269c-5.581-1.231-9.3-3.478-11.079-5.741-0.529-0.672-0.866-1.338-1.052-1.984-0.109-0.381-0.177-0.756-0.166-1.115 0.026-0.759 0.352-1.582 1.036-2.391 1.031-1.225 2.896-2.421 5.823-3.36-2.224-0.545-4.183-1.203-5.9-1.947-1.992 1.212-3.236 2.546-3.994 3.8-0.888 1.479-1.122 2.843-1.153 3.752-0.052 1.512 0.354 2.986 1.144 4.383 0.333 0.589 0.727 1.164 1.194 1.723 2.625 3.121 7.299 5.664 13.245 6.977 3.708 0.816 5.377 2.481 5.391 3.769 0.005 0.528-0.28 1.127-0.855 1.713-0.429 0.437-1.022 0.865-1.794 1.255q-0.077 0.036-0.158 0.072v-3.597c-0.569-0.383-1.523-0.833-3.034-1.166-0.396-0.089-0.771-0.195-1.156-0.293v5.032c-1.892-0.914-2.775-2.073-2.766-3.017 0.007-0.722 0.553-1.554 1.661-2.294a33 33 0 0 1-4.414-1.6c-0.993 1.262-1.427 2.623-1.439 3.854-0.026 2.616 1.835 5.839 6.958 7.571 0.529 0.181 1.081 0.346 1.681 0.491h0.866a19 19 0 0 0 1.643-0.478c1.192-0.398 2.21-0.881 3.067-1.417 0.636-0.398 1.197-0.83 1.665-1.277 1.619-1.552 2.279-3.33 2.266-4.891-0.027-2.863-2.322-6.419-8.68-7.824" fill="black"></path><path d="M52.094 70.417v-10.37a34 34 0 0 0-2.638-0.486 80 80 0 0 1-1.552-0.26v11.1c0.684 0.229 1.403 0.434 2.144 0.619l0.454-0.121c0.56-0.148 1.084-0.313 1.592-0.482M95 23.954v-4.19c-13.931 0-29.627-7.935-29.784-8.016l-1.767-0.902-0.997 1.718c-2.574 4.44-7.347 7.2-12.452 7.2-5.11 0-9.88-2.759-12.452-7.2l-0.997-1.718-1.769 0.902c-0.159 0.081-15.851 8.016-29.782 8.016v4.19c12.318 0 25.387-5.514 29.988-7.652a18.7 18.7 0 0 0 2.157 2.465c-3.334 1.987-9.767 5.261-16.002 5.261v4.19c8.373 0 16.609-4.802 19.608-6.752a18.6 18.6 0 0 0 7.151 2.365v26.907c0.942 0.216 1.88 0.395 2.793 0.531q0.72 0.107 1.398 0.229V23.831a18.6 18.6 0 0 0 7.153-2.365c2.996 1.95 11.234 6.752 19.607 6.752v-4.19c-6.237 0-12.67-3.276-15.999-5.264a19 19 0 0 0 2.156-2.462c4.602 2.137 17.671 7.652 29.99 7.652" fill="black"></path><path d="M64.295 30.441c-0.38-0.139-3.791-1.298-6.432 0.232-0.958 0.556-2.176 1.681-2.562 3.902l4.132 0.716c0.13-0.756 0.42-0.927 0.528-0.99 0.683-0.401 2.143-0.188 2.839 0.053 2.993 1.208 4.688 4.044 4.312 7.23-0.442 3.749-3.914 8.152-12.032 10.562 2.405 0.619 4.376 1.384 5.985 2.237 8.447-4.03 9.947-10.103 10.207-12.31 0.594-5.037-2.179-9.702-6.977-11.632" fill="black"></path><path d="M50.386 53.342c-12.064-1.805-16.931-7.258-17.459-11.756-0.376-3.184 1.314-6.024 4.228-7.2a6 6 0 0 1 1.831-0.306c0.426 0 0.82 0.062 1.087 0.22 0.111 0.065 0.401 0.236 0.532 0.99l4.128-0.717c-0.385-2.217-1.604-3.346-2.559-3.898-1.021-0.593-2.159-0.784-3.196-0.784-1.641 0-3.029 0.476-3.308 0.578-4.725 1.904-7.5 6.566-6.907 11.607 0.343 2.931 2.878 12.698 21.001 15.411 8.83 1.319 12.069 4.452 12.155 6.938 0.086 2.472-2.701 5.598-8.204 7.647 1.844 0.7 3.3 1.6 4.413 2.61 5.087-2.624 8.115-6.395 7.979-10.401-0.085-2.594-1.798-8.857-15.721-10.939" fill="black"></path></svg></g></svg></g></svg></g><defs><mask></mask></defs></svg><rect width="395.52" height="67.64971577477489" fill="black" stroke="none" visibility="hidden"></rect></g></mask></svg><rect width="395.52" height="67.64971577477489" fill="black" stroke="none" visibility="hidden"></rect></g></mask><linearGradient x1="0" x2="1" y1="0.548" y2="0.55" id="9d172e2c-80e5-4e27-9ab2-dc78091cf583"><stop stop-color="#ff6cab" offset="0"></stop><stop stop-color="#7366ff" offset="1"></stop></linearGradient><rect width="395.52" height="67.64971577477489" fill="url(#9d172e2c-80e5-4e27-9ab2-dc78091cf583)" mask="url(#726a9255-9372-44a5-8dba-96f126c0b76a)" data-fill-palette-color="accent"></rect></svg><rect width="395.52" height="67.64971577477489" fill="none" stroke="none" visibility="hidden"></rect></g></svg></g></svg>